PathFileType	4	(X/Y/Z)	C:/Users/beibeiliu/ov580/test_trc/User2\sequence.6_training_dense_left.trc
DataRate	CameraRate	NumFrames	NumMarkers	Units	OrigDataRate	OrigDataStartFrame	OrigNumFrames
120	120	13	19	mm	120	1	80
Frame#	Time	ThumbCMC			ThumbMCP			ThumbIP			ThumbTip			IndexMCP			IndexPIP			IndexTip			MiddleMCP			MiddlePIP			MiddleTip			RingMCP			RingPIP			RingTip			PinkyMCP			PinkyPIP			PinkyTip			BackHand1			BackHand2			BackHand3	
		X0	Y0	Z0	X1	Y1	Z1	X2	Y2	Z2	X3	Y3	Z3	X4	Y4	Z4	X5	Y5	Z5	X6	Y6	Z6	X7	Y7	Z7	X8	Y8	Z8	X9	Y9	Z9	X10	Y10	Z10	X11	Y11	Z11	X12	Y12	Z12	X13	Y13	Z13	X14	Y14	Z14	X15	Y15	Z15	X16	Y16	Z16	X17	Y17	Z17	X18	Y18	Z18	
0	0	-141.462	-30.5296	-0.295605	-121.211	-35.8344	-20.1629	-94.392	-36.1639	-42.6385	-75.143	-39.8524	-59.9287	-159.393	-7.36316	-80.5733	-151.406	-4.46212	-106.389	-146.018	1.61863	-138.104	-185.066	-3.88709	-88.0995	-186.098	0.345765	-119.783	-188.536	2.11438	-151.698	-210.241	-9.70494	-83.5186	-215.398	-6.23677	-106.518	-219.508	-4.92097	-136.05	-236.281	-25.2993	-64.9609	-245.301	-22.8352	-85.0189	-253.067	-12.8461	-107.96	-208.906	-11.3621	-28.8616	-208.954	-10.7478	9.06676	-174.616	-6.49095	-12.3236	
1	0.00833333	-143.233	-31.0618	-2.66651	-120.466	-34.8235	-21.1118	-99.6282	-37.6274	-44.9907	-76.5187	-41.4734	-60.6256	-159.895	-6.8166	-81.9441	-152.736	-2.32793	-110.395	-148.015	1.50852	-139.446	-184.61	-3.36732	-90.6378	-185.594	-0.0239195	-117.417	-189.191	2.0782	-151.922	-214.733	-10.3242	-81.3772	-214.631	-7.08459	-107.369	-219.586	-4.246	-141.258	-232.854	-26.9562	-62.3945	-247.296	-20.9714	-89.3961	-254.914	-12.6286	-105.476	-211.307	-13.2613	-25.4328	-208.401	-9.42547	6.20483	-174.055	-7.31947	-14.3108	
2	0.0166667	-143.719	-32.162	-0.585233	-122.762	-36.2667	-18.6369	-95.623	-37.3809	-46.6813	-80.2374	-43.0474	-57.8256	-154.495	-6.68233	-84.4494	-153.173	-3.50833	-108.149	-144.626	0.683269	-134.609	-187.187	-3.53267	-86.9861	-185.914	0.253953	-118.372	-186.11	2.59482	-149.809	-209.467	-10.6335	-79.5819	-215.379	-6.78218	-111.639	-220.186	-5.18929	-140.127	-234.666	-25.7733	-62.9853	-246.596	-22.4481	-87.5034	-253.473	-14.5157	-107.194	-212.159	-12.663	-25.8013	-207.945	-11.1433	5.87012	-175.781	-8.16819	-11.3353	
3	0.025	-140.206	-30.788	-4.88957	-122.712	-36.0604	-21.8125	-97.3695	-38.0376	-45.0024	-79.2971	-43.3653	-55.879	-156.996	-7.37023	-84.3289	-148.269	-2.54431	-110.718	-149.829	-0.334578	-134.478	-184.412	-4.09117	-85.6259	-185.669	0.781554	-120.447	-188.296	2.65795	-150.67	-208.963	-9.73967	-82.1671	-215.725	-6.6811	-110.224	-217.012	-5.08469	-135.412	-229.639	-26.4481	-63.0141	-241.802	-20.5714	-87.9094	-253.018	-11.8852	-105.707	-209.985	-13.2631	-28.9875	-211.36	-10.7119	4.70557	-173.898	-7.51678	-14.4389	
4	0.0333333	-144.65	-32.6165	-1.83208	-120.977	-35.3943	-23.218	-94.7987	-37.7507	-42.7818	-75.8777	-42.2853	-56.0722	-154.54	-7.617	-80.7794	-150.299	-3.51999	-106.134	-144.957	0.831765	-133.241	-181.984	-1.65029	-90.9429	-182.867	0.734106	-122.793	-185.871	3.39463	-149.048	-213.518	-11.0592	-81.4296	-214.558	-5.72687	-111.773	-219.412	-5.08343	-140.012	-235.638	-26.072	-64.3423	-240.504	-21.6258	-87.5742	-253.427	-11.7732	-106.218	-210.687	-11.7076	-28.3497	-205.567	-9.62335	3.0694	-174.49	-8.68087	-14.8137	
5	0.0416667	-143.736	-31.9007	-5.74205	-121.825	-35.4183	-22.279	-96.245	-36.9123	-46.7886	-75.0151	-42.1517	-57.071	-153.831	-8.40462	-79.809	-152.457	-3.55871	-110.672	-145.425	0.173986	-133.462	-186.228	-3.06811	-90.3318	-183.992	0.903733	-119.909	-189.311	2.79614	-150.47	-214.216	-10.815	-81.3711	-217.917	-6.35649	-111.281	-220.99	-5.70753	-136.967	-233.497	-24.811	-64.0064	-240.838	-22.1151	-85.8997	-254.304	-15.0123	-107.593	-207.157	-12.3343	-24.8493	-207.726	-11.075	5.27541	-171.067	-8.94971	-13.3935	
6	0.05	-140.987	-31.4967	-5.01932	-118.662	-35.7136	-22.5696	-98.1272	-40.8346	-43.9479	-79.0939	-44.3537	-59.8791	-156.863	-5.88943	-85.0058	-149.11	-3.70785	-106.28	-147.351	1.03237	-134.207	-186.848	-1.02025	-90.271	-183.648	2.08421	-117.731	-186.953	3.22689	-153.13	-208.918	-8.85449	-78.9941	-215.874	-4.96447	-108.752	-216.431	-5.62609	-142.264	-235.435	-23.3208	-63.2374	-244.99	-18.677	-91.3433	-253.354	-15.984	-113.265	-205.787	-13.7853	-24.3653	-208.932	-11.3118	7.51125	-174.091	-7.28951	-11.2061	
7	0.0583333	-141.539	-29.6212	-0.498538	-119.965	-35.4241	-21.1746	-95.4816	-37.3008	-49.1527	-80.2267	-43.517	-66.0307	-156.167	1.1365	-81.9763	-148.242	4.57004	-110.013	-148.681	7.06084	-134.345	-185.041	4.79309	-88.3459	-184.188	6.94044	-119.079	-180.974	-2.52316	-156.713	-207.803	-3.39409	-79.0529	-215.571	-1.9175	-110.544	-211.864	-12.8741	-139.967	-233.844	-18.8733	-65.6294	-239.669	-17.3261	-92.383	-242.032	-26.6925	-123.576	-211.925	-12.5645	-24.1476	-210.458	-11.4114	5.68243	-172.662	-3.44985	-10.7082	
8	0.0666667	-143.484	-19.5815	-3.73867	-122.731	-25.9271	-27.2598	-105.626	-30.4056	-54.6265	-93.8678	-35.4923	-80.5332	-163.079	13.0723	-77.1524	-157.623	18.7038	-109.673	-150.605	16.9224	-138.467	-188.936	9.98911	-84.4377	-187.073	6.02831	-124.139	-175.268	-17.5015	-148.266	-210.388	-2.62705	-82.4339	-209.53	-7.24558	-114.025	-190.267	-32.0009	-133.499	-229.303	-25.6841	-66.7764	-227.66	-26.0067	-99.6251	-213.073	-47.2234	-121.311	-212.716	-13.2804	-26.9603	-216.138	-15.1888	7.23566	-180.908	0.159644	-8.95002	
9	0.075	-155.254	-4.35378	-5.51225	-127.902	-8.09527	-32.4987	-111.827	-13.5354	-60.5001	-109.015	-25.5805	-84.7813	-181.505	18.5675	-82.2661	-180.784	19.4315	-110.637	-171.019	13.442	-140.872	-196.455	3.27116	-94.029	-181.201	-7.2961	-125.752	-155.703	-35.0816	-129.336	-207.299	-15.6708	-92.0042	-196.823	-29.8497	-118.184	-165.579	-49.9807	-112.395	-216.016	-40.4089	-73.9061	-200.609	-49.0654	-105.61	-173.345	-62.9121	-101.324	-221.13	-24.7331	-31.4759	-223.82	-23.5293	-1.5762	-196.355	4.07643	-12.0487	
10	0.0833333	-171.491	8.08389	-15.041	-143.822	4.01365	-39.1399	-125.625	-5.56685	-68.6025	-117.94	-20.6627	-91.751	-201.537	3.86244	-92.5793	-196.706	4.74664	-121.251	-180.562	-5.39896	-149.11	-196.9	-19.3086	-104.002	-169.406	-28.0403	-122.369	-137.128	-42.7738	-105.321	-198.078	-45.367	-96.5766	-170.661	-51.313	-111.999	-140.783	-51.3793	-87.0102	-198.754	-59.8254	-78.3393	-168.965	-63.9	-97.2902	-146.449	-62.8625	-75.326	-221.544	-42.0387	-36.4008	-225.482	-38.5943	-7.70797	-215.196	-4.94402	-21.8227	
11	0.0916667	-185.713	7.2882	-19.0684	-153.17	13.6849	-42.9847	-130.399	4.85346	-69.44	-120.342	-15.6315	-86.1597	-209.047	-10.2804	-99.9365	-202.436	-12.95	-129.985	-186.275	-19.1739	-151.627	-190.128	-34.4193	-103.476	-153.616	-37.7444	-115.54	-124.776	-32.2681	-86.6048	-181.836	-57.0415	-92.9983	-150.428	-52.7908	-101.01	-129.274	-43.7126	-73.3764	-177.337	-68.4914	-80.7669	-148.11	-63.7244	-84.2612	-133.655	-52.0323	-54.4974	-218.004	-55.1477	-41.3297	-224.96	-51.8789	-8.60161	-221.11	-13.6943	-30.6109	
12	0.1	-194.751	5.84504	-28.8074	-162.94	12.6535	-45.9638	-134.474	11.6597	-70.2878	-118.614	-6.14061	-87.2139	-211.609	-19.4152	-105.363	-205.455	-20.6546	-133.695	-188.992	-25.2518	-155.541	-182.663	-38.202	-106.018	-145.07	-34.7556	-110.685	-123.554	-24.9104	-82.621	-169.178	-61.0833	-91.9923	-138.182	-45.8544	-93.4712	-126.353	-30.9748	-64.4943	-165.051	-73.8718	-73.8061	-136.085	-58.711	-75.2665	-134.022	-36.7947	-46.6374	-211.367	-58.074	-45.0747	-222.098	-55.2125	-9.09913	-224.436	-23.4784	-32.9123	
